<?xml version="1.0" encoding="UTF-8"?>
<svg xmlns="http://www.w3.org/2000/svg" version="1.1" viewBox="0 0 32 32">
  <defs>
    <style>
      .cls-1 {
        fill: #427db8;
      }

      .cls-2 {
        fill: #fff;
        fill-rule: evenodd;
      }
    </style>
  </defs>
  <!-- Generator: Adobe Illustrator 28.6.0, SVG Export Plug-In . SVG Version: 1.2.0 Build 709)  -->
  <g>
    <g id="Layer_1">
      <path class="cls-1" d="M9.1,11.7c-.2.2-.4.5-.4.8v8.1c0,.2.2.4.4.4h4.1c.2,0,.4-.2.4-.4v-5.7c0-.4.3-.7.7-.7h3.3c.4,0,.7.3.7.7v5.7c0,.2.2.4.4.4h4.1c.2,0,.4-.2.4-.4v-8.1c0-.3-.1-.6-.4-.8l-6.6-6.3c-.2-.2-.6-.2-.8,0l-6.6,6.3h.3ZM16,9.7c.4,0,.8,0,1.1.2,0,0,.1,0,.2.2v.2l-.6,1c0,.1-.2.2-.3.1h-.6c-.1,0-.2,0-.3-.1l-.6-1v-.2s0-.1.2-.2c.4-.1.7-.2,1.1-.2h-.2ZM18.2,10.7c.4.4.7.9.8,1.4,0,.2,0,.3-.1.5-.1.1-.3.2-.5.2h-1.1c0-.3,0-.6-.3-.8v-.3l.6-1s.1-.1.2-.1h.4ZM16.8,12.8h-1.6c0-.2,0-.4.2-.6.1-.1.3-.2.6-.2s.4,0,.6.2c.1.1.2.3.2.6h0ZM14.7,12.8h-1.1c-.2,0-.3,0-.5-.2s-.2-.3-.1-.5c.1-.6.4-1.1.8-1.4h.2s.2,0,.2.1l.6,1v.3c-.2.2-.3.5-.3.8h.2Z"/>
      <path class="cls-2" d="M8.3,11.4c-1,.8-2.1-.5-1.2-1.4L15.2,2.2c.2-.2.5-.3.8-.3s.6,0,.8.3l3.2,3.1v-1.4c0-.2.2-.5.5-.5h1.2c.2,0,.5.2.5.5v3.4l2.8,2.7c.9.9-.2,2.2-1.2,1.4l-7.3-7c-.2-.2-.6-.2-.8,0l-7.3,7h0Z"/>
      <path class="cls-2" d="M1.9,30.1h4.2c.7,0,1.2-.5,1.2-1.2v-1.6c0-.7-.5-1.2-1.2-1.2H1.9c-.7,0-1.2.5-1.2,1.2v1.6c0,.7.5,1.2,1.2,1.2h0ZM21.9,24.9h4.2c.7,0,1.2-.5,1.2-1.2v-1.6c0-.7-.5-1.2-1.2-1.2h-1.6c-.2.7-.8,1.2-1.6,1.2h-2.3v1.5c0,.7.5,1.2,1.2,1.2h.1ZM13.9,24.9h4.2c.7,0,1.2-.5,1.2-1.2v-1.5h-.4c-.8,0-1.4-.5-1.6-1.2h-2.5c-.2.7-.8,1.2-1.6,1.2h-.6v1.5c0,.7.5,1.2,1.2,1.2h.1ZM5.9,24.9h4.2c.7,0,1.2-.5,1.2-1.2v-1.5h-2.2c-.8,0-1.4-.5-1.6-1.2h-1.7c-.7,0-1.2.5-1.2,1.2v1.6c0,.7.5,1.2,1.2,1.2h0ZM17.9,30.1h4.2c.7,0,1.2-.5,1.2-1.2v-1.6c0-.7-.5-1.2-1.2-1.2h-4.2c-.7,0-1.2.5-1.2,1.2v1.6c0,.7.5,1.2,1.2,1.2h0ZM25.9,30.1h4.2c.7,0,1.2-.5,1.2-1.2v-1.6c0-.7-.5-1.2-1.2-1.2h-4.2c-.7,0-1.2.5-1.2,1.2v1.6c0,.7.5,1.2,1.2,1.2h0ZM9.9,30.1h4.2c.7,0,1.2-.5,1.2-1.2v-1.6c0-.7-.5-1.2-1.2-1.2h-4.2c-.7,0-1.2.5-1.2,1.2v1.6c0,.7.5,1.2,1.2,1.2h0Z"/>
    </g>
  </g>
</svg>