<?xml version="1.0" encoding="UTF-8"?>
<svg xmlns="http://www.w3.org/2000/svg" version="1.1" viewBox="0 0 32 32">
  <defs>
    <style>
      .cls-1, .cls-2, .cls-3 {
        fill-rule: evenodd;
      }

      .cls-1, .cls-4 {
        fill: #fff;
      }

      .cls-2 {
        fill: #427db8;
      }

      .cls-3 {
        fill: #427db7;
      }
    </style>
  </defs>
  <!-- Generator: Adobe Illustrator 28.6.0, SVG Export Plug-In . SVG Version: 1.2.0 Build 709)  -->
  <g>
    <g id="Layer_1">
      <g>
        <path class="cls-4" d="M12.6,27.5h4.2c.3,0,.5-.2.5-.5v-6.9c0-.5.4-.9.9-.9h4c.5,0,.9.4.9.9v6.9c0,.3.2.5.5.5h5c.3,0,.5-.2.5-.5v-9.8c0-.4-.1-.7-.4-1l-7.9-7.5c-.3-.3-.7-.3-1,0l-6.4,6.1c.9.3,1.5,1.1,1.4,2v1.3c0,.4-.2.8-.4,1.1.2.2.3.5.3.8.2.8.2,1.9,0,2.7-.2,1.8-.9,3.4-2,4.8h0ZM20.1,13.9c.5,0,1,0,1.4.3.1,0,.2.1.2.2v.3l-.8,1.2c0,.1-.2.2-.4.1h-.8c-.1,0-.3,0-.4-.1l-.8-1.2v-.3c0-.1.1-.2.2-.2.4-.2.9-.3,1.4-.3h0ZM22.8,15c.5.5.8,1.1,1,1.7,0,.2,0,.4-.1.6s-.3.3-.5.3h-1.3c0-.4-.1-.7-.3-1v-.4l.8-1.2s.1-.1.3-.2c.1,0,.2,0,.3.1h-.2ZM21.1,17.6h-1.9c0-.3.1-.5.3-.7.2-.2.4-.3.7-.3s.5.1.7.3c.2.2.3.4.3.7h-.1ZM18.5,17.6h-1.3c-.2,0-.4,0-.5-.3-.1-.2-.2-.4-.1-.6.2-.7.5-1.3,1-1.7,0,0,.2-.1.3-.1s.2,0,.3.2l.8,1.2v.4c-.2.3-.3.6-.3,1h-.2Z"/>
        <path class="cls-2" d="M10.6,13l8.5-8.2c.3-.3.6-.4,1-.4s.7,0,1,.4l3.9,3.8v-1.6c0-.3.2-.5.5-.5h1.4c.3,0,.5.2.5.5v4.1l3.3,3.2c1.1,1.1-.2,2.6-1.5,1.7l-8.8-8.5c-.3-.3-.7-.3-1,0l-7.6,7.3h-1.5v-.2h0v-1.5h.3Z"/>
        <path class="cls-1" d="M1.8,18.4l10.7.4c.4,0,.8-.3.8-.8v-1.3c0-.4-.3-.8-.7-.8h-3.9v-.2h-3c0-.1-3.8-.1-3.8-.1-.4-.2-.8.2-.8.6v1.3c0,.4.3.8.7.8h0Z"/>
        <path class="cls-1" d="M6.2,14.9h2.4c.4.1.7-.2.7-.5l.3-7.2c0-1-.9-1.9-1.9-2-1,0-2,.8-2.1,1.8v7.2c0,.4.2.6.6.7h0Z"/>
        <path class="cls-3" d="M13.3,20.1c0-.3-.2-.5-.5-.5l-11.3-.4c-.3,0-.5.2-.5.5v1.7h0c0,.1-.2,5.5-.2,5.5,0,.2,0,.4.4.4h2.4c0,0,.3,0,.3-.2l1-3.2h0v3.1c0,.2,0,.4.3.4h3.8c.2.1.3,0,.3-.1l.5-1.4h.1l.3,1.4c0,.2.2.3.3.3h.4c3.5-3.5,2.4-7.5,2.4-7.5h0Z"/>
      </g>
    </g>
  </g>
</svg>