<?xml version="1.0" encoding="UTF-8"?>
<svg xmlns="http://www.w3.org/2000/svg" version="1.1" viewBox="0 0 32 32">
  <defs>
    <style>
      .cls-1 {
        fill: #fff;
      }

      .cls-1, .cls-2 {
        fill-rule: evenodd;
      }

      .cls-2 {
        fill: #427db8;
      }
    </style>
  </defs>
  <!-- Generator: Adobe Illustrator 28.6.0, SVG Export Plug-In . SVG Version: 1.2.0 Build 709)  -->
  <g>
    <g id="Layer_1">
      <path class="cls-1" d="M24.7,27.6h0s-17.5,0-17.5,0h0c-3.8-.3-6.8-3.4-6.8-7.3s2-5.9,4.8-6.8v-.4h0c0-4.8,3.9-8.7,8.7-8.7s8.7,3.9,8.7,8.7h2.9c3.3.8,5.8,3.8,5.8,7.3s-3,7-6.8,7.2ZM7.3,15c-2.9,0-4.8,2.4-4.8,5.3s2.4,5.3,5.3,5.3h16.5c2.9,0,5.3-2.4,5.3-5.3s-2.4-5.3-5.3-5.3h-3.4v-1.9c0-3.5-3.3-6.4-6.8-6.4s-6.8,2.9-6.8,6.4v1.9Z"/>
      <path class="cls-2" d="M20.2,21.6h0s-8.4,0-8.4,0h0c-1.8-.1-3.3-1.6-3.3-3.5s1-2.8,2.3-3.3v-.2h0c0-2.3,1.9-4.2,4.2-4.2s4.2,1.9,4.2,4.2h1.4c1.6.4,2.8,1.8,2.8,3.5s-1.4,3.4-3.3,3.5ZM11.8,15.5c-1.4,0-2.3,1.1-2.3,2.6s1.1,2.6,2.6,2.6h7.9c1.4,0,2.6-1.1,2.6-2.6s-1.1-2.6-2.6-2.6h-1.6v-.9c0-1.7-1.6-3.1-3.3-3.1s-3.3,1.4-3.3,3.1v.9Z"/>
    </g>
  </g>
</svg>