<?xml version="1.0" encoding="UTF-8"?>
<svg xmlns="http://www.w3.org/2000/svg" version="1.1" viewBox="0 0 32 32">
  <defs>
    <style>
      .cls-1 {
        fill: #fff;
      }

      .cls-1, .cls-2 {
        fill-rule: evenodd;
      }

      .cls-2 {
        fill: #427db8;
      }
    </style>
  </defs>
  <!-- Generator: Adobe Illustrator 28.6.0, SVG Export Plug-In . SVG Version: 1.2.0 Build 709)  -->
  <g>
    <g id="Layer_1">
      <g>
        <path class="cls-2" d="M20.5,2.8c-.2,0-.3,0-.4,0-.1,0-.2.2-.2.4v2.2c0,.1,0,.3.2.3,1.2,1.1,1.9,2.7,1.9,4.3s-.9,3.6-2.3,4.7c-.2.1-.2.3-.2.5s.2.3.5.3h6.5c.4,0,.7-.3.7-.7v-3.4c0-4.1-2.8-7.7-6.6-8.8ZM12.4,14.8c-1.4-1.1-2.3-2.8-2.3-4.7s.7-3.2,1.9-4.3c.1,0,.2-.2.2-.3v-2.2c0-.2,0-.3-.2-.4-.1,0-.3-.1-.4,0-3.8,1.1-6.6,4.6-6.6,8.8v3.4c0,.4.3.7.7.7h6.5c.2,0,.4-.1.4-.3,0-.2,0-.4-.2-.5Z"/>
        <path class="cls-1" d="M18.7,6.3V1.9c0-.7-.5-1.2-1.2-1.2h-2.9c-.7,0-1.2.5-1.2,1.2v4.4c-1.2.8-2,2.2-2,3.8,0,2.6,2.1,4.7,4.7,4.7s4.7-2.1,4.7-4.7-.8-3-2-3.8ZM16,13.3c-1.7,0-3.1-1.4-3.1-3.1s1.4-3.1,3.1-3.1,3.1,1.4,3.1,3.1-1.4,3.1-3.1,3.1Z"/>
        <path class="cls-2" d="M4.4,16.5h23.2c.6,0,1.1.5,1.1,1.1s-.5,1.1-1.1,1.1h-2.2c-1.6,0-4.2,1.3-9.4,1.3s-7.4-1.3-9.4-1.3h-2.2c-.6,0-1.1-.5-1.1-1.1s.5-1.1,1.1-1.1h0Z"/>
        <path class="cls-1" d="M26.7,20.5c.3.7.8,1.2,1.4,1.6.2.1.3.4.2.7-.2.7-.5,1.4-.8,2-.1.2-.4.4-.7.3-1.2-.3-2.6,0-3.6,1.1-1,1-1.3,2.3-1.1,3.6,0,.3,0,.5-.3.7-.6.3-1.3.6-2,.8-.3,0-.5,0-.7-.2-.7-1.1-1.9-1.8-3.3-1.8s-2.6.7-3.3,1.8c-.1.2-.4.3-.7.2-.7-.2-1.4-.5-2-.8-.2-.1-.4-.4-.3-.7.3-1.2,0-2.6-1.1-3.6-1-1-2.3-1.3-3.6-1.1-.3,0-.5,0-.7-.3-.3-.6-.6-1.3-.8-2,0-.3,0-.5.2-.7.6-.4,1.1-1,1.4-1.6.2-.4.6-.7,1-.7h.3c.4,0,.9,0,1.4.2.4,0,.8.4.9.8.9,3.2,3.8,5.5,7.2,5.5s6.3-2.3,7.2-5.4c.1-.4.4-.7.9-.8,0,0,.2,0,.3,0,.4,0,.8-.2,1.1-.2h.3c.5,0,.8.2,1,.7h0Z"/>
      </g>
    </g>
  </g>
</svg>