<?xml version="1.0" encoding="UTF-8"?>
<svg xmlns="http://www.w3.org/2000/svg" version="1.1" viewBox="0 0 32 32">
  <defs>
    <style>
      .cls-1 {
        fill: #fff;
      }

      .cls-1, .cls-2 {
        fill-rule: evenodd;
      }

      .cls-2 {
        fill: #427db8;
      }
    </style>
  </defs>
  <!-- Generator: Adobe Illustrator 28.6.0, SVG Export Plug-In . SVG Version: 1.2.0 Build 709)  -->
  <g>
    <g id="Layer_1">
      <path class="cls-2" d="M31,27.2l-6.4-8.6c-.3-.4-.9-.4-1.3,0l-1.7,1.6.8,2.4c.2.7,0,1.5-.5,2s-1.3.7-2,.5l-5.4-1.8-3.6,3.9c-.3.3-.4.6-.2,1,.1.3.5.6.8.6h18.9c.4,0,.7-.2.8-.5.1-.3,0-.7-.2-1h0Z"/>
      <path class="cls-1" d="M20.3,23.9l-12.6-4.2c-.3,0-.5-.3-.5-.6s0-.6.2-.8l3.1-3.1,1.9,1.9c.6.6,1.6.6,2.2,0h0c.6-.6.6-1.6,0-2.2l-1.9-1.9,3.1-3.1c.2-.2.5-.3.8-.2.3,0,.5.3.6.5l4.2,12.6c0,.3,0,.6-.2.8-.2.2-.5.3-.8.2h0ZM10.9,11.9l-.2.2,3.4,3.4c.4.4.4.9,0,1.3h0c-.4.4-.9.4-1.3,0l-3.4-3.4-.2.2c-.4.4-1.1.4-1.5,0l-.8-.8,3.1-3.1.8.8c.4.4.4,1.1,0,1.5h0ZM6.2,11.9L2.2,7.9l3.1-3.1,4,4-3.1,3.1h0ZM1.4,7.2h0c-.9-1-.9-2.4,0-3.2h0c.9-.9,2.3-.9,3.1,0h0l-3.1,3.2h0Z"/>
    </g>
  </g>
</svg>