<?xml version="1.0" encoding="UTF-8"?>
<svg xmlns="http://www.w3.org/2000/svg" version="1.1" viewBox="0 0 32 32">
  <defs>
    <style>
      .cls-1 {
        fill: #fff;
      }

      .cls-1, .cls-2 {
        fill-rule: evenodd;
      }

      .cls-2 {
        fill: #427db8;
      }
    </style>
  </defs>
  <!-- Generator: Adobe Illustrator 28.6.0, SVG Export Plug-In . SVG Version: 1.2.0 Build 709)  -->
  <g>
    <g id="Layer_1">
      <g id="Layer_1-2" data-name="Layer_1">
        <g id="Layer_1-2">
          <g id="Layer_1-2-2" data-name="Layer_1-2">
            <g>
              <path class="cls-1" d="M8.4,11.5h21.4c.2,0,.3,0,.4.2.1.1.1.3.1.4l-2,10.9c-1,0-1.8.5-2.4,1.2l-8.3-1.1-3.1,5c-.4.6-1.3.5-1.5-.2l-1.5-5.7h-.9c-.2-.2-.4-.3-.4-.5l-1.5-6.6-3.4-3.4h-1.9v-.6h2.6l2.3,2.1-.3-1.1v-.5c.1-.1.2-.2.4-.2h0ZM10.9,13.3h16.9c.4,0,.7.3.7.7h0c0,.4-.3.7-.7.7H10.9c-.4,0-.7-.3-.7-.7h0c0-.4.3-.7.7-.7h0ZM16.7,23l-4.4-.6,1.4,5.3h0l2.9-4.7h.1Z"/>
              <path class="cls-2" d="M28.3,23.1c1.6,0,3,1.3,3,3s-1.3,3-3,3-3-1.3-3-3,1.3-3,3-3h0ZM28.3,25c.6,0,1,.5,1,1s-.5,1-1,1-1-.5-1-1,.5-1,1-1h0ZM28.3,24.1c1.1,0,1.9.9,1.9,1.9s-.9,1.9-1.9,1.9-1.9-.9-1.9-1.9.9-1.9,1.9-1.9h0Z"/>
              <path class="cls-2" d="M1.4,10.8h1.9v1.3h-1.9c-.4,0-.7-.3-.7-.7s.3-.7.7-.7h0Z"/>
              <path class="cls-2" d="M27.4,10.1l-5.2-6.9c-.2-.3-.7-.3-1,0l-2.8,2.7c-.3.3-.7.3-1,0l-.8-.7c-.3-.2-.7-.2-1,0l-4.5,4.9s-.1.2-.2.2h16.5s0-.1-.1-.2h0Z"/>
            </g>
          </g>
        </g>
      </g>
    </g>
  </g>
</svg>