<?xml version="1.0" encoding="UTF-8"?>
<svg xmlns="http://www.w3.org/2000/svg" version="1.1" viewBox="0 0 32 32">
  <defs>
    <style>
      .cls-1 {
        fill: #fff;
      }

      .cls-1, .cls-2 {
        fill-rule: evenodd;
      }

      .cls-2 {
        fill: #427db8;
      }
    </style>
  </defs>
  <!-- Generator: Adobe Illustrator 28.6.0, SVG Export Plug-In . SVG Version: 1.2.0 Build 709)  -->
  <g>
    <g id="Layer_1">
      <g id="Layer_1-2" data-name="Layer_1">
        <g>
          <path class="cls-1" d="M7.9,6.6h1.1c.3,0,.6-.8.7-1.1-.6-1.4-.2-2.2.4-2.8l.4-.3,3.2,1.2h.1c.2,0,.3.3.2.5h0c0,.2-.3.3-.5.2h-.2v1.2c0,.2-.1.3-.3.3h0l-.4.8c0,.2-.4.4-.7.3h-.2s0,0-.1,0l-.2.3h0c0,0,1.2.6,1.2.6.7.3,1.4,1,1.5,2.1l.3,4.2,1.9,2.3v.2h-.2l-2.2-.5s-.1,0-.2-.1l-.8-.9c-.3-.3-.3-.6-.3-.8l-.2-2.2s-.1-.1-.2,0l-.5,3.3h-.1l-5.6-1.3s0,0,0-.2l.9-4.1c0-.1,0-.2,0-.3h-.3l-2.3,1.1-.3,2.8s0,.2-.2.1l-1.3-.3s0,0,0-.1v-3.1c0-.5.3-1,.7-1.3l3-1.9c.5-.3,1.2-.3,1.9-.3h.1ZM10.5,2l.2-.5c.2-.6.8-.9,1.4-.7l1.2.5c.6.2.9.8.7,1.4l-.2.6-3.2-1.2h0ZM17.4,18.5l1.5,1.4c.5.5,1.1.8,1.9.9l4.8.4c.8,0,.9-1,0-1.1l-4.2-1.2-3-1c-.4-.4-.8-.4-1.3-.6l-14.8-3.4c-.8-.2-1.2.8-.3,1.1l3.1.7s.2.1.2.2v7.8l-1.3,6c-.4,1.7,1.8,2,2.1.6l1.6-6v-.3l.8-5.9s.1-.1.2,0l2.3,5.8.2,6.4c0,1.6,2.3,1.6,2.3,0v-6.2c.1-.3,0-.6,0-1l-1.7-5.3h0q0-.1.1-.1l5.3,1.2h0l.2-.4Z"/>
          <path class="cls-2" d="M30.3,30.2l-4.8-6.4c-.2-.3-.7-.3-.9,0l-2.6,2.5c-.2.2-.6.2-.9,0l-.7-.6c-.3-.2-.6-.2-.9,0l-4.1,4.4c-.2.2-.3.5-.2.7.1.3.3.4.6.4h13.9c.3,0,.5-.2.6-.4.1-.3,0-.5-.1-.7h0Z"/>
        </g>
      </g>
    </g>
  </g>
</svg>